<svg width="1440" height="1024" viewBox="0 0 1440 1024" fill="none" xmlns="http://www.w3.org/2000/svg">
<g clip-path="url(#clip0_166_295)">
<rect width="1440" height="1024" fill="#FDF5E6"/>
<g clip-path="url(#clip1_166_295)">
<path d="M571.8 -81H118.2C104.282 -81 93 -69.7176 93 -55.8V397.8C93 411.718 104.282 423 118.2 423H571.8C585.718 423 597 411.718 597 397.8V-55.8C597 -69.7176 585.718 -81 571.8 -81Z" fill="black"/>
<path d="M143.4 -30.6001L264.36 171L143.4 372.6L345 251.64L546.6 372.6L425.64 171L546.6 -30.6001L345 90.3599L143.4 -30.6001Z" fill="#FF6666"/>
</g>
<g clip-path="url(#clip2_166_295)">
<path d="M1366.8 19H895.2C880.73 19 869 30.7301 869 45.2V516.8C869 531.27 880.73 543 895.2 543H1366.8C1381.27 543 1393 531.27 1393 516.8V45.2C1393 30.7301 1381.27 19 1366.8 19Z" fill="black"/>
<path d="M1131 71.3917L921.392 280.997L1131 490.602L1340.6 280.997L1131 71.3917Z" fill="#66CC66"/>
</g>
<g clip-path="url(#clip3_166_295)">
<path d="M419.7 553H-71.7C-86.7774 553 -99 565.223 -99 580.3V1071.7C-99 1086.78 -86.7774 1099 -71.7 1099H419.7C434.777 1099 447 1086.78 447 1071.7V580.3C447 565.223 434.777 553 419.7 553Z" fill="black"/>
<path d="M174 607.6C150.008 607.6 126.998 617.131 110.032 634.096C93.0671 651.062 83.5361 674.071 83.5361 698.064C83.5455 709.951 85.8973 721.719 90.4572 732.696C95.0171 743.673 101.696 753.644 110.111 762.039C110.086 762.066 110.061 762.092 110.036 762.119C101.642 753.703 91.6714 747.023 80.6942 742.462C69.717 737.902 57.9486 735.549 46.0617 735.539C22.0691 735.539 -0.940755 745.07 -17.906 762.035C-34.8713 779 -44.4023 802.01 -44.4023 826.003C-44.4023 849.995 -34.8713 873.005 -17.906 889.97C-0.940755 906.936 22.0691 916.467 46.0617 916.467C57.9483 916.457 69.7165 914.106 80.6936 909.546C91.6708 904.986 101.642 898.307 110.036 889.892C110.063 889.916 110.09 889.941 110.116 889.965C101.7 898.36 95.0207 908.331 90.4599 919.308C85.8991 930.285 83.5464 942.054 83.5364 953.941C83.5364 977.933 93.0674 1000.94 110.033 1017.91C126.998 1034.87 150.008 1044.4 174 1044.4C197.993 1044.4 221.003 1034.87 237.968 1017.91C254.933 1000.94 264.464 977.933 264.464 953.941C264.454 942.054 262.102 930.285 257.541 919.308C252.98 908.331 246.301 898.36 237.884 889.965C237.911 889.941 237.938 889.916 237.964 889.892C246.359 898.307 256.33 904.986 267.307 909.546C278.284 914.106 290.053 916.457 301.939 916.467C325.932 916.467 348.942 906.936 365.907 889.97C382.872 873.005 392.403 849.995 392.403 826.003C392.403 802.01 382.872 779 365.907 762.035C348.942 745.07 325.932 735.539 301.939 735.539C290.053 735.549 278.286 737.901 267.31 742.461C256.334 747.021 246.364 753.699 237.97 762.114C237.941 762.089 237.913 762.064 237.885 762.039C246.301 753.645 252.98 743.674 257.541 732.697C262.102 721.719 264.455 709.951 264.465 698.064C264.465 674.071 254.934 651.062 237.968 634.096C221.003 617.131 197.993 607.6 174 607.6Z" fill="#CC66CC"/>
</g>
<g clip-path="url(#clip4_166_295)">
<path d="M1225.75 727H717.25C701.648 727 689 739.648 689 755.25V1263.75C689 1279.35 701.648 1292 717.25 1292H1225.75C1241.35 1292 1254 1279.35 1254 1263.75V755.25C1254 739.648 1241.35 727 1225.75 727Z" fill="black"/>
<path d="M971.5 1235.44C1096.32 1235.44 1197.5 1134.26 1197.5 1009.44C1197.5 884.627 1096.32 783.443 971.5 783.443C846.684 783.443 745.5 884.627 745.5 1009.44C745.5 1134.26 846.684 1235.44 971.5 1235.44Z" fill="#6666FF"/>
</g>
</g>
<defs>
<clipPath id="clip0_166_295">
<rect width="1440" height="1024" fill="white"/>
</clipPath>
<clipPath id="clip1_166_295">
<rect width="504" height="504" fill="white" transform="translate(93 -81)"/>
</clipPath>
<clipPath id="clip2_166_295">
<rect width="524" height="524" fill="white" transform="translate(869 19)"/>
</clipPath>
<clipPath id="clip3_166_295">
<rect width="546" height="546" fill="white" transform="translate(-99 553)"/>
</clipPath>
<clipPath id="clip4_166_295">
<rect width="565" height="565" fill="white" transform="translate(689 727)"/>
</clipPath>
</defs>
</svg>
